<?xml version="1.0" encoding="UTF-8" standalone="no"?>
<svg width="101px" height="64px" viewBox="0 0 101 64" version="1.1" xmlns="http://www.w3.org/2000/svg" xmlns:xlink="http://www.w3.org/1999/xlink" xmlns:sketch="http://www.bohemiancoding.com/sketch/ns">
    <title>logo</title>
    <description>Created with Sketch (http://www.bohemiancoding.com/sketch)</description>
    <defs>
        <path d="M100.045,27.407 C100.045,20.148 96.577,13.36 90.279,8.295 C84.155,3.369 76.047,0.656 67.449,0.656 C61.208,0.656 55.226,2.087 50.072,4.755 C44.918,2.087 38.936,0.656 32.695,0.656 C24.097,0.656 15.989,3.369 9.865,8.295 C3.568,13.361 0.099,20.148 0.099,27.407 C0.099,33.84 2.86,39.963 7.908,44.8 L5.238,63.231 L20.971,52.382 C24.701,53.562 28.638,54.159 32.696,54.159 C38.831,54.159 44.928,52.785 50.073,50.309 C55.218,52.785 61.315,54.159 67.45,54.159 C71.508,54.159 75.445,53.562 79.175,52.382 L94.908,63.231 L92.236,44.8 C97.284,39.964 100.045,33.84 100.045,27.407 C100.045,27.407 100.045,33.84 100.045,27.407 L100.045,27.407 L100.045,27.407 Z M21.469,46.792 L20.151,46.319 L12.431,51.642 L13.732,42.672 L12.602,41.695 C8.059,37.767 5.557,32.693 5.557,27.407 C5.557,15.665 17.732,6.112 32.696,6.112 C36.976,6.112 41.027,6.895 44.632,8.286 L44.62,8.295 C38.322,13.361 34.854,20.148 34.854,27.407 C34.854,35.257 38.136,41.928 44.367,46.793 C40.702,48.06 36.692,48.703 32.696,48.703 C28.777,48.703 25,48.06 21.469,46.792 C21.469,46.792 25,48.06 21.469,46.792 L21.469,46.792 L21.469,46.792 Z M56.623,38.025 L43.523,38.025 C43.273,37.66 43.036,37.285 42.812,36.902 L57.334,36.902 C57.11,37.285 56.873,37.66 56.623,38.025 C56.623,38.025 56.873,37.66 56.623,38.025 L56.623,38.025 L56.623,38.025 Z M51.054,43.482 C50.733,43.701 50.406,43.912 50.073,44.118 C49.74,43.913 49.413,43.701 49.092,43.482 L51.054,43.482 L51.054,43.482 L51.054,43.482 L51.054,43.482 Z M59.428,31.445 L40.718,31.445 C40.641,31.076 40.575,30.702 40.52,30.321 L59.626,30.321 C59.57,30.702 59.504,31.076 59.428,31.445 C59.428,31.445 59.504,31.076 59.428,31.445 L59.428,31.445 L59.428,31.445 Z M40.505,24.865 C40.562,24.487 40.632,24.113 40.714,23.742 L59.431,23.742 C59.513,24.113 59.583,24.488 59.641,24.865 L40.505,24.865 L40.505,24.865 L40.505,24.865 L40.505,24.865 Z M42.93,18.285 C43.161,17.904 43.406,17.53 43.665,17.162 L56.481,17.162 C56.74,17.53 56.985,17.905 57.216,18.285 L42.93,18.285 L42.93,18.285 L42.93,18.285 L42.93,18.285 Z M49.137,11.705 C49.442,11.485 49.755,11.272 50.073,11.063 C50.391,11.272 50.703,11.485 51.009,11.705 L49.137,11.705 L49.137,11.705 L49.137,11.705 L49.137,11.705 Z M87.714,51.642 L79.994,46.319 L78.676,46.792 C75.146,48.06 71.368,48.702 67.449,48.702 C63.453,48.702 59.443,48.06 55.778,46.792 C62.009,41.927 65.291,35.256 65.291,27.406 C65.291,20.147 61.823,13.359 55.525,8.294 L55.513,8.285 C59.117,6.894 63.168,6.111 67.449,6.111 C82.413,6.111 94.588,15.664 94.588,27.406 C94.588,32.692 92.086,37.766 87.543,41.694 L86.413,42.671 L87.714,51.642 L87.714,51.642 L87.714,51.642 L87.714,51.642 Z M87.714,51.642" id="path-1"></path>
    </defs>
    <g id="Page-1" stroke="none" stroke-width="1" fill="none" fill-rule="evenodd" sketch:type="MSPage">
        <g id="Shape">
            <use fill="#000000" fill-rule="evenodd" sketch:type="MSShapeGroup" xlink:href="#path-1"></use>
            <use fill="none" xlink:href="#path-1"></use>
        </g>
    </g>
</svg>